<?xml version="1.0" standalone="no"?>
<!DOCTYPE svg PUBLIC "-//W3C//DTD SVG 20010904//EN"
 "http://www.w3.org/TR/2001/REC-SVG-20010904/DTD/svg10.dtd">
<svg version="1.0" xmlns="http://www.w3.org/2000/svg"
 width="1256.000000pt" height="1256.000000pt" viewBox="0 0 1256.000000 1256.000000"
 preserveAspectRatio="xMidYMid meet">
<metadata>
Created by potrace 1.14, written by Peter Selinger 2001-2017
</metadata>
<g transform="translate(0.000000,1256.000000) scale(0.100000,-0.100000)"
fill="#000000" stroke="none">
<path d="M8597 12194 c-1 -1 -49 -4 -107 -7 -58 -3 -136 -11 -175 -17 -38 -6
-82 -13 -97 -15 -15 -2 -35 -6 -45 -9 -10 -3 -31 -8 -48 -10 -99 -17 -392
-110 -492 -156 -24 -11 -45 -20 -48 -20 -22 0 -321 -160 -422 -226 l-81 -54
-2996 0 -2996 0 0 -5189 0 -5190 3508 0 c1929 0 3510 -1 3513 -1 4 0 5 -36 3
-79 -3 -84 17 -179 54 -255 18 -37 18 -39 0 -105 -10 -36 -21 -81 -24 -100 -3
-18 -8 -43 -10 -55 -2 -11 -4 -61 -5 -109 0 -140 43 -205 126 -189 16 3 34 9
40 13 5 5 30 25 55 45 l45 36 7 -38 c13 -79 38 -117 89 -138 45 -18 81 -12
155 25 52 26 75 31 155 34 106 5 124 8 226 36 204 57 443 193 718 409 39 30
72 57 75 60 3 3 28 23 55 45 75 59 192 166 328 297 l69 68 72 0 c39 1 308 1
598 1 l528 0 3 2812 c1 1547 5 2821 9 2832 4 11 19 65 33 120 34 136 69 308
100 491 2 12 7 48 10 80 4 33 9 68 11 79 2 11 7 47 10 80 3 33 7 71 9 84 11
68 19 282 19 486 0 293 -11 517 -29 624 -13 83 -36 210 -40 231 -3 14 -8 39
-10 55 -11 60 -85 352 -104 410 -20 58 -21 85 -21 1028 l0 967 -686 0 -687 0
-86 58 c-47 32 -113 73 -146 92 -33 19 -69 40 -80 47 -132 77 -437 209 -530
229 -5 1 -44 11 -85 23 -101 27 -246 50 -372 57 -162 9 -198 10 -201 8z"/>
</g>
</svg>
